<svg width="51" height="56" viewBox="0 0 51 56" fill="none" xmlns="http://www.w3.org/2000/svg">
<path d="M25.5 56L51 39.7778V16.2222L25.5 0L0 16.2222V39.7778L25.5 56Z" fill="black"/>
<path d="M12 40C13.1191 36.0305 14.8695 30.6635 16.89 25.8364M16.89 25.8364C20.0408 18.3088 23.8487 12.0944 26.9446 14.5413C32.0258 18.5573 33.6697 33.1871 33.8565 40C42.6365 36.8924 56.8712 30.1751 43.5705 28.1671C30.2698 26.1591 20.2415 25.7766 16.89 25.8364Z" stroke="#EEEEEE" stroke-width="3"/>
<path d="M10 40C11.1191 35.8779 12.8695 30.3044 14.89 25.2916M14.89 25.2916C18.0408 17.4745 21.8487 11.0211 24.9446 13.5621C30.0258 17.7326 31.6697 32.9251 31.8565 40C40.6365 36.7728 54.8712 29.7972 41.5705 27.712C28.2698 25.6267 18.2415 25.2295 14.89 25.2916Z" stroke="#EEEEEE" stroke-width="3"/>
</svg>
